<svg width="513" height="342" viewBox="0 0 513 342" fill="none" xmlns="http://www.w3.org/2000/svg">
<rect width="513" height="342" fill="#6D553E"/>
<path d="M169.67 104.94L174.89 120.99L180.11 104.94H185.57L178.1 126H171.68L164.21 104.94H169.67ZM187.568 105.24C187.568 104.38 187.858 103.66 188.438 103.08C189.018 102.5 189.728 102.21 190.568 102.21C191.408 102.21 192.118 102.5 192.698 103.08C193.278 103.66 193.568 104.38 193.568 105.24C193.568 106.08 193.278 106.79 192.698 107.37C192.118 107.95 191.408 108.24 190.568 108.24C189.728 108.24 189.018 107.95 188.438 107.37C187.858 106.79 187.568 106.08 187.568 105.24ZM193.148 109.26V126H188.018V109.26H193.148ZM204.046 109.08C206.186 109.08 207.826 109.87 208.966 111.45V103.8H214.096V126H208.966V123.57C207.726 125.33 206.086 126.21 204.046 126.21C202.666 126.21 201.386 125.85 200.206 125.13C199.046 124.41 198.126 123.4 197.446 122.1C196.766 120.8 196.426 119.32 196.426 117.66C196.426 116 196.766 114.52 197.446 113.22C198.126 111.92 199.046 110.91 200.206 110.19C201.386 109.45 202.666 109.08 204.046 109.08ZM205.306 113.52C204.706 113.52 204.116 113.68 203.536 114C202.976 114.3 202.516 114.76 202.156 115.38C201.816 116 201.646 116.76 201.646 117.66C201.646 118.56 201.816 119.32 202.156 119.94C202.516 120.54 202.976 121 203.536 121.32C204.096 121.62 204.686 121.77 205.306 121.77C205.906 121.77 206.486 121.62 207.046 121.32C207.626 121 208.086 120.53 208.426 119.91C208.786 119.29 208.966 118.53 208.966 117.63C208.966 116.73 208.786 115.98 208.426 115.38C208.086 114.76 207.636 114.3 207.076 114C206.516 113.68 205.926 113.52 205.306 113.52ZM234.264 117.69C234.264 118.27 234.224 118.81 234.144 119.31H222.624C222.724 120.05 223.054 120.66 223.614 121.14C224.174 121.6 224.874 121.83 225.714 121.83C226.354 121.83 226.834 121.74 227.154 121.56C227.474 121.36 227.814 121.04 228.174 120.6H233.724C233.244 122.28 232.284 123.64 230.844 124.68C229.404 125.7 227.694 126.21 225.714 126.21C224.114 126.21 222.674 125.86 221.394 125.16C220.134 124.46 219.144 123.46 218.424 122.16C217.724 120.84 217.374 119.32 217.374 117.6C217.374 115.88 217.724 114.38 218.424 113.1C219.144 111.8 220.134 110.81 221.394 110.13C222.654 109.43 224.084 109.08 225.684 109.08C227.304 109.08 228.764 109.42 230.064 110.1C231.364 110.76 232.384 111.74 233.124 113.04C233.884 114.34 234.264 115.89 234.264 117.69ZM228.924 116.1C228.844 115.32 228.504 114.69 227.904 114.21C227.304 113.71 226.564 113.46 225.684 113.46C224.924 113.46 224.264 113.71 223.704 114.21C223.144 114.69 222.794 115.32 222.654 116.1H228.924ZM245.119 109.08C246.719 109.08 248.179 109.43 249.499 110.13C250.839 110.81 251.899 111.8 252.679 113.1C253.459 114.38 253.849 115.88 253.849 117.6C253.849 119.32 253.459 120.83 252.679 122.13C251.919 123.43 250.879 124.44 249.559 125.16C248.239 125.86 246.769 126.21 245.149 126.21C243.529 126.21 242.049 125.86 240.709 125.16C239.369 124.44 238.309 123.43 237.529 122.13C236.749 120.83 236.359 119.32 236.359 117.6C236.359 115.88 236.749 114.38 237.529 113.1C238.309 111.8 239.359 110.81 240.679 110.13C242.019 109.43 243.499 109.08 245.119 109.08ZM245.119 113.46C244.139 113.46 243.299 113.82 242.599 114.54C241.919 115.24 241.579 116.27 241.579 117.63C241.579 118.99 241.929 120.03 242.629 120.75C243.349 121.47 244.189 121.83 245.149 121.83C246.109 121.83 246.929 121.47 247.609 120.75C248.289 120.03 248.629 118.99 248.629 117.63C248.629 116.27 248.279 115.24 247.579 114.54C246.879 113.82 246.059 113.46 245.119 113.46ZM271.282 104.94V126H266.152V104.94H271.282ZM285.991 109.08C287.251 109.08 288.361 109.37 289.321 109.95C290.301 110.51 291.061 111.33 291.601 112.41C292.161 113.49 292.441 114.76 292.441 116.22V126H287.341V116.91C287.341 115.83 287.051 115 286.471 114.42C285.911 113.82 285.131 113.52 284.131 113.52C283.131 113.52 282.341 113.82 281.761 114.42C281.201 115 280.921 115.83 280.921 116.91V126H275.791V109.26H280.921V111.72C281.421 110.9 282.101 110.26 282.961 109.8C283.841 109.32 284.851 109.08 285.991 109.08ZM305.737 121.65V126H303.127C301.247 126 299.787 125.59 298.747 124.77C297.727 123.93 297.217 122.5 297.217 120.48V113.52H295.657V109.26H297.217V105.18H302.347V109.26H305.707V113.52H302.347V120.48C302.347 120.88 302.467 121.18 302.707 121.38C302.947 121.56 303.347 121.65 303.907 121.65H305.737ZM314.378 112.38C314.938 111.36 315.628 110.56 316.448 109.98C317.268 109.38 318.178 109.08 319.178 109.08V114.3H317.918C316.738 114.3 315.848 114.58 315.248 115.14C314.668 115.7 314.378 116.68 314.378 118.08V126H309.248V109.26H314.378V112.38ZM329.523 109.08C331.123 109.08 332.583 109.43 333.903 110.13C335.243 110.81 336.303 111.8 337.083 113.1C337.863 114.38 338.253 115.88 338.253 117.6C338.253 119.32 337.863 120.83 337.083 122.13C336.323 123.43 335.283 124.44 333.963 125.16C332.643 125.86 331.173 126.21 329.553 126.21C327.933 126.21 326.453 125.86 325.113 125.16C323.773 124.44 322.713 123.43 321.933 122.13C321.153 120.83 320.763 119.32 320.763 117.6C320.763 115.88 321.153 114.38 321.933 113.1C322.713 111.8 323.763 110.81 325.083 110.13C326.423 109.43 327.903 109.08 329.523 109.08ZM329.523 113.46C328.543 113.46 327.703 113.82 327.003 114.54C326.323 115.24 325.983 116.27 325.983 117.63C325.983 118.99 326.333 120.03 327.033 120.75C327.753 121.47 328.593 121.83 329.553 121.83C330.513 121.83 331.333 121.47 332.013 120.75C332.693 120.03 333.033 118.99 333.033 117.63C333.033 116.27 332.683 115.24 331.983 114.54C331.283 113.82 330.463 113.46 329.523 113.46ZM181.91 162.69C181.91 163.27 181.87 163.81 181.79 164.31H170.27C170.37 165.05 170.7 165.66 171.26 166.14C171.82 166.6 172.52 166.83 173.36 166.83C174 166.83 174.48 166.74 174.8 166.56C175.12 166.36 175.46 166.04 175.82 165.6H181.37C180.89 167.28 179.93 168.64 178.49 169.68C177.05 170.7 175.34 171.21 173.36 171.21C171.76 171.21 170.32 170.86 169.04 170.16C167.78 169.46 166.79 168.46 166.07 167.16C165.37 165.84 165.02 164.32 165.02 162.6C165.02 160.88 165.37 159.38 166.07 158.1C166.79 156.8 167.78 155.81 169.04 155.13C170.3 154.43 171.73 154.08 173.33 154.08C174.95 154.08 176.41 154.42 177.71 155.1C179.01 155.76 180.03 156.74 180.77 158.04C181.53 159.34 181.91 160.89 181.91 162.69ZM176.57 161.1C176.49 160.32 176.15 159.69 175.55 159.21C174.95 158.71 174.21 158.46 173.33 158.46C172.57 158.46 171.91 158.71 171.35 159.21C170.79 159.69 170.44 160.32 170.3 161.1H176.57ZM193.935 162.36L199.335 171H193.575L190.845 166.65L188.145 171H183.075L188.505 162.9L183.075 154.26H188.835L191.565 158.61L194.265 154.26H199.335L193.935 162.36ZM211.72 154.08C213.1 154.08 214.37 154.45 215.53 155.19C216.71 155.91 217.64 156.92 218.32 158.22C219 159.52 219.34 161 219.34 162.66C219.34 164.32 219 165.8 218.32 167.1C217.64 168.4 216.71 169.41 215.53 170.13C214.37 170.85 213.1 171.21 211.72 171.21C209.64 171.21 208 170.33 206.8 168.57V178.98H201.67V154.26H206.8V156.45C207.94 154.87 209.58 154.08 211.72 154.08ZM210.46 158.52C209.84 158.52 209.25 158.68 208.69 159C208.13 159.3 207.67 159.76 207.31 160.38C206.97 160.98 206.8 161.73 206.8 162.63C206.8 163.53 206.97 164.29 207.31 164.91C207.67 165.53 208.13 166 208.69 166.32C209.27 166.62 209.86 166.77 210.46 166.77C211.08 166.77 211.67 166.62 212.23 166.32C212.79 166 213.24 165.54 213.58 164.94C213.94 164.32 214.12 163.56 214.12 162.66C214.12 161.76 213.94 161 213.58 160.38C213.24 159.76 212.78 159.3 212.2 159C211.64 158.68 211.06 158.52 210.46 158.52ZM227.747 148.8V171H222.617V148.8H227.747ZM238.646 154.08C240.786 154.08 242.426 154.87 243.566 156.45V154.26H248.696V171H243.566V168.57C242.326 170.33 240.686 171.21 238.646 171.21C237.266 171.21 235.986 170.85 234.806 170.13C233.646 169.41 232.726 168.4 232.046 167.1C231.366 165.8 231.026 164.32 231.026 162.66C231.026 161 231.366 159.52 232.046 158.22C232.726 156.92 233.646 155.91 234.806 155.19C235.986 154.45 237.266 154.08 238.646 154.08ZM239.906 158.52C239.306 158.52 238.716 158.68 238.136 159C237.576 159.3 237.116 159.76 236.756 160.38C236.416 161 236.246 161.76 236.246 162.66C236.246 163.56 236.416 164.32 236.756 164.94C237.116 165.54 237.576 166 238.136 166.32C238.696 166.62 239.286 166.77 239.906 166.77C240.506 166.77 241.086 166.62 241.646 166.32C242.226 166 242.686 165.53 243.026 164.91C243.386 164.29 243.566 163.53 243.566 162.63C243.566 161.73 243.386 160.98 243.026 160.38C242.686 159.76 242.236 159.3 241.676 159C241.116 158.68 240.526 158.52 239.906 158.52ZM252.753 150.24C252.753 149.38 253.043 148.66 253.623 148.08C254.203 147.5 254.913 147.21 255.753 147.21C256.593 147.21 257.303 147.5 257.883 148.08C258.463 148.66 258.753 149.38 258.753 150.24C258.753 151.08 258.463 151.79 257.883 152.37C257.303 152.95 256.593 153.24 255.753 153.24C254.913 153.24 254.203 152.95 253.623 152.37C253.043 151.79 252.753 151.08 252.753 150.24ZM258.333 154.26V171H253.203V154.26H258.333ZM273.042 154.08C274.302 154.08 275.412 154.37 276.372 154.95C277.352 155.51 278.112 156.33 278.652 157.41C279.212 158.49 279.492 159.76 279.492 161.22V171H274.392V161.91C274.392 160.83 274.102 160 273.522 159.42C272.962 158.82 272.182 158.52 271.182 158.52C270.182 158.52 269.392 158.82 268.812 159.42C268.252 160 267.972 160.83 267.972 161.91V171H262.842V154.26H267.972V156.72C268.472 155.9 269.152 155.26 270.012 154.8C270.892 154.32 271.902 154.08 273.042 154.08ZM283.398 150.24C283.398 149.38 283.688 148.66 284.268 148.08C284.848 147.5 285.558 147.21 286.398 147.21C287.238 147.21 287.948 147.5 288.528 148.08C289.108 148.66 289.398 149.38 289.398 150.24C289.398 151.08 289.108 151.79 288.528 152.37C287.948 152.95 287.238 153.24 286.398 153.24C285.558 153.24 284.848 152.95 284.268 152.37C283.688 151.79 283.398 151.08 283.398 150.24ZM288.978 154.26V171H283.848V154.26H288.978ZM303.686 154.08C304.946 154.08 306.056 154.37 307.016 154.95C307.996 155.51 308.756 156.33 309.296 157.41C309.856 158.49 310.136 159.76 310.136 161.22V171H305.036V161.91C305.036 160.83 304.746 160 304.166 159.42C303.606 158.82 302.826 158.52 301.826 158.52C300.826 158.52 300.036 158.82 299.456 159.42C298.896 160 298.616 160.83 298.616 161.91V171H293.486V154.26H298.616V156.72C299.116 155.9 299.796 155.26 300.656 154.8C301.536 154.32 302.546 154.08 303.686 154.08ZM320.882 154.08C323.022 154.08 324.662 154.87 325.802 156.45V154.26H330.932V170.91C330.932 173.37 330.242 175.38 328.862 176.94C327.502 178.5 325.392 179.28 322.532 179.28C319.972 179.28 317.942 178.76 316.442 177.72C314.942 176.68 314.092 175.09 313.892 172.95H318.932C319.412 174.21 320.612 174.84 322.532 174.84C323.472 174.84 324.252 174.52 324.872 173.88C325.492 173.26 325.802 172.27 325.802 170.91V168.57C324.562 170.33 322.922 171.21 320.882 171.21C319.502 171.21 318.222 170.85 317.042 170.13C315.882 169.41 314.962 168.4 314.282 167.1C313.602 165.8 313.262 164.32 313.262 162.66C313.262 161 313.602 159.52 314.282 158.22C314.962 156.92 315.882 155.91 317.042 155.19C318.222 154.45 319.502 154.08 320.882 154.08ZM322.142 158.52C321.542 158.52 320.952 158.68 320.372 159C319.812 159.3 319.352 159.76 318.992 160.38C318.652 161 318.482 161.76 318.482 162.66C318.482 163.56 318.652 164.32 318.992 164.94C319.352 165.54 319.812 166 320.372 166.32C320.932 166.62 321.522 166.77 322.142 166.77C322.742 166.77 323.322 166.62 323.882 166.32C324.462 166 324.922 165.53 325.262 164.91C325.622 164.29 325.802 163.53 325.802 162.63C325.802 161.73 325.622 160.98 325.262 160.38C324.922 159.76 324.472 159.3 323.912 159C323.352 158.68 322.762 158.52 322.142 158.52ZM189.89 199.26L184.88 216H179.36L177.02 206.1L174.65 216H169.13L164.12 199.26H169.25L171.86 211.02L174.44 199.26H179.87L182.45 211.02L185.06 199.26H189.89ZM202.436 199.08C203.696 199.08 204.806 199.37 205.766 199.95C206.746 200.51 207.506 201.33 208.046 202.41C208.606 203.49 208.886 204.76 208.886 206.22V216H203.786V206.91C203.786 205.83 203.496 205 202.916 204.42C202.356 203.82 201.576 203.52 200.576 203.52C199.576 203.52 198.786 203.82 198.206 204.42C197.646 205 197.366 205.83 197.366 206.91V216H192.236V193.8H197.366V201.72C197.866 200.9 198.546 200.26 199.406 199.8C200.286 199.32 201.296 199.08 202.436 199.08ZM219.632 199.08C221.772 199.08 223.412 199.87 224.552 201.45V199.26H229.682V216H224.552V213.57C223.312 215.33 221.672 216.21 219.632 216.21C218.252 216.21 216.972 215.85 215.792 215.13C214.632 214.41 213.712 213.4 213.032 212.1C212.352 210.8 212.012 209.32 212.012 207.66C212.012 206 212.352 204.52 213.032 203.22C213.712 201.92 214.632 200.91 215.792 200.19C216.972 199.45 218.252 199.08 219.632 199.08ZM220.892 203.52C220.292 203.52 219.702 203.68 219.122 204C218.562 204.3 218.102 204.76 217.742 205.38C217.402 206 217.232 206.76 217.232 207.66C217.232 208.56 217.402 209.32 217.742 209.94C218.102 210.54 218.562 211 219.122 211.32C219.682 211.62 220.272 211.77 220.892 211.77C221.492 211.77 222.072 211.62 222.632 211.32C223.212 211 223.672 210.53 224.012 209.91C224.372 209.29 224.552 208.53 224.552 207.63C224.552 206.73 224.372 205.98 224.012 205.38C223.672 204.76 223.222 204.3 222.662 204C222.102 203.68 221.512 203.52 220.892 203.52ZM243.129 211.65V216H240.519C238.639 216 237.179 215.59 236.139 214.77C235.119 213.93 234.609 212.5 234.609 210.48V203.52H233.049V199.26H234.609V195.18H239.739V199.26H243.099V203.52H239.739V210.48C239.739 210.88 239.859 211.18 240.099 211.38C240.339 211.56 240.739 211.65 241.299 211.65H243.129ZM279.275 199.26L274.265 216H268.745L266.405 206.1L264.035 216H258.515L253.505 199.26H258.635L261.245 211.02L263.825 199.26H269.255L271.835 211.02L274.445 199.26H279.275ZM297.281 207.69C297.281 208.27 297.241 208.81 297.161 209.31H285.641C285.741 210.05 286.071 210.66 286.631 211.14C287.191 211.6 287.891 211.83 288.731 211.83C289.371 211.83 289.851 211.74 290.171 211.56C290.491 211.36 290.831 211.04 291.191 210.6H296.741C296.261 212.28 295.301 213.64 293.861 214.68C292.421 215.7 290.711 216.21 288.731 216.21C287.131 216.21 285.691 215.86 284.411 215.16C283.151 214.46 282.161 213.46 281.441 212.16C280.741 210.84 280.391 209.32 280.391 207.6C280.391 205.88 280.741 204.38 281.441 203.1C282.161 201.8 283.151 200.81 284.411 200.13C285.671 199.43 287.101 199.08 288.701 199.08C290.321 199.08 291.781 199.42 293.081 200.1C294.381 200.76 295.401 201.74 296.141 203.04C296.901 204.34 297.281 205.89 297.281 207.69ZM291.941 206.1C291.861 205.32 291.521 204.69 290.921 204.21C290.321 203.71 289.581 203.46 288.701 203.46C287.941 203.46 287.281 203.71 286.721 204.21C286.161 204.69 285.811 205.32 285.671 206.1H291.941ZM315.96 199.08C318.1 199.08 319.74 199.87 320.88 201.45V193.8H326.01V216H320.88V213.57C319.64 215.33 318 216.21 315.96 216.21C314.58 216.21 313.3 215.85 312.12 215.13C310.96 214.41 310.04 213.4 309.36 212.1C308.68 210.8 308.34 209.32 308.34 207.66C308.34 206 308.68 204.52 309.36 203.22C310.04 201.92 310.96 200.91 312.12 200.19C313.3 199.45 314.58 199.08 315.96 199.08ZM317.22 203.52C316.62 203.52 316.03 203.68 315.45 204C314.89 204.3 314.43 204.76 314.07 205.38C313.73 206 313.56 206.76 313.56 207.66C313.56 208.56 313.73 209.32 314.07 209.94C314.43 210.54 314.89 211 315.45 211.32C316.01 211.62 316.6 211.77 317.22 211.77C317.82 211.77 318.4 211.62 318.96 211.32C319.54 211 320 210.53 320.34 209.91C320.7 209.29 320.88 208.53 320.88 207.63C320.88 206.73 320.7 205.98 320.34 205.38C320 204.76 319.55 204.3 318.99 204C318.43 203.68 317.84 203.52 317.22 203.52ZM338.078 199.08C339.678 199.08 341.138 199.43 342.458 200.13C343.798 200.81 344.858 201.8 345.638 203.1C346.418 204.38 346.808 205.88 346.808 207.6C346.808 209.32 346.418 210.83 345.638 212.13C344.878 213.43 343.838 214.44 342.518 215.16C341.198 215.86 339.728 216.21 338.108 216.21C336.488 216.21 335.008 215.86 333.668 215.16C332.328 214.44 331.268 213.43 330.488 212.13C329.708 210.83 329.318 209.32 329.318 207.6C329.318 205.88 329.708 204.38 330.488 203.1C331.268 201.8 332.318 200.81 333.638 200.13C334.978 199.43 336.458 199.08 338.078 199.08ZM338.078 203.46C337.098 203.46 336.258 203.82 335.558 204.54C334.878 205.24 334.538 206.27 334.538 207.63C334.538 208.99 334.888 210.03 335.588 210.75C336.308 211.47 337.148 211.83 338.108 211.83C339.068 211.83 339.888 211.47 340.568 210.75C341.248 210.03 341.588 208.99 341.588 207.63C341.588 206.27 341.238 205.24 340.538 204.54C339.838 203.82 339.018 203.46 338.078 203.46Z" fill="white"/>
</svg>
